<svg xmlns="http://www.w3.org/2000/svg" width="34" height="38" viewBox="0 0 34 38" fill="none">
  <symbol id="logo__mobile" viewBox="0 0 34 38">
    <g clip-path="url(#clip0_153_267)">
      <path d="M6.07 20.72V18.46C12.7536 17.5423 19.4937 17.0979 26.24 17.13C26.24 17.73 26.24 18.34 26.18 18.95C28.0976 18.099 30.1128 17.4877 32.18 17.13C30.8625 13.722 28.4618 10.8412 25.3471 8.93087C22.2324 7.02052 18.5764 6.1864 14.9414 6.55683C11.3064 6.92727 7.89379 8.48172 5.22852 10.9811C2.56325 13.4804 0.792969 16.7863 0.190001 20.39L6.07 20.72Z" fill="#FDC305"/>
      <path d="M27.24 24.23C26.08 25.51 25.85 25.43 25.85 27.68C25.85 28.59 25.85 32.58 25.85 36.86C28.1425 35.346 30.0245 33.2879 31.328 30.8694C32.6315 28.4509 33.3158 25.7474 33.32 23C33.3068 21.9591 33.1997 20.9216 33 19.9C30.9282 21.1295 28.9967 22.5814 27.24 24.23Z" fill="#FDC305"/>
      <path d="M6.36 25.72C6.36 25.72 2.57 24.28 1.17 23.89C0.787067 23.7693 0.396097 23.6757 0 23.61C0.108395 26.496 0.965588 29.3041 2.48739 31.7586C4.00919 34.2131 6.14326 36.2296 8.68 37.61L6.36 25.72Z" fill="#FDC305"/>
      <path d="M26.29 17.12C26.3307 11.5986 25.862 6.08528 24.89 0.65C24.89 0.65 24.75 -0.64 24 0.41C23.4109 1.65814 23.0067 2.98539 22.8 4.35C18.5418 4.07577 14.2675 4.18957 10.03 4.69C9.24 2 7.85 0.75 7.18 1C6.51 1.25 6.46 4.31 6.46 4.31L6.13 18.41C12.8113 17.506 19.548 17.0749 26.29 17.12Z" fill="#F06351"/>
      <path d="M12.41 14C12.41 13.91 13.41 14.68 13.82 14.92C14.23 15.16 14.43 15.34 14.43 15.51C14.43 15.68 14.16 15.85 13.8 15.85C13.44 15.85 12.89 15.73 12.8 15.58H13.74H14.03C13.4207 15.1294 12.8757 14.5978 12.41 14Z" fill="black"/>
      <path d="M19.89 14.11L18.8 15.44C18.8 15.5 18.63 15.79 18.98 15.74C19.3942 15.6783 19.8023 15.5812 20.2 15.45C20.31 15.45 20.27 15.26 20.09 15.28C19.91 15.3 19.4 15.33 19.09 15.39L19.93 14.13C19.93 14.13 20 14 19.89 14.11Z" fill="black"/>
      <path d="M16.75 20.2C17.2135 19.9958 17.5967 19.6443 17.84 19.2C18.12 18.55 17.84 18.29 17.4 18.2C16.7979 18.0902 16.1765 18.2116 15.66 18.54C15.27 18.9 15.32 19.26 15.61 19.54C15.9613 19.8062 16.3442 20.0279 16.75 20.2Z" fill="black"/>
      <path d="M16.35 21.45C16.2379 21.6785 16.0816 21.8825 15.89 22.05C15.6052 22.2791 15.2551 22.4122 14.89 22.43C14.3638 22.472 13.8406 22.3189 13.42 22C13.2222 21.8808 13.0436 21.7324 12.89 21.56C12.7895 21.4491 12.6669 21.3605 12.53 21.3C12.53 21.3 13.28 25.4 15.1 26.05C16.92 26.7 17.24 25.3 17.3 24.92C17.3601 23.7851 17.0742 22.6588 16.48 21.69C16.46 21.38 16.45 21.58 16.35 21.45Z" fill="#F06351"/>
      <path d="M14.71 22.59C14.2453 22.5247 13.7989 22.3651 13.3982 22.1209C12.9975 21.8767 12.651 21.5531 12.38 21.17C12.3667 21.157 12.3561 21.1414 12.3489 21.1242C12.3417 21.1071 12.338 21.0886 12.338 21.07C12.338 21.0514 12.3417 21.0329 12.3489 21.0158C12.3561 20.9986 12.3667 20.983 12.38 20.97C12.393 20.9567 12.4086 20.9461 12.4258 20.9389C12.4429 20.9317 12.4614 20.928 12.48 20.928C12.4986 20.928 12.5171 20.9317 12.5342 20.9389C12.5514 20.9461 12.567 20.9567 12.58 20.97C13.0848 21.6642 13.843 22.1313 14.69 22.27C15.0217 22.245 15.3426 22.1413 15.6261 21.9674C15.9096 21.7934 16.1475 21.5544 16.32 21.27L16.46 21.08L16.56 21.29C16.56 21.29 16.93 22.05 17.56 22.09C18.19 22.13 18.61 21.68 19.17 20.81C19.183 20.7967 19.1986 20.7861 19.2158 20.7789C19.2329 20.7717 19.2514 20.768 19.27 20.768C19.2886 20.768 19.3071 20.7717 19.3242 20.7789C19.3414 20.7861 19.357 20.7967 19.37 20.81C19.4023 20.8306 19.4255 20.8629 19.4348 20.9C19.4441 20.9372 19.4388 20.9766 19.42 21.01C18.78 22.01 18.15 22.45 17.54 22.41C17.308 22.3763 17.0867 22.2904 16.8927 22.1587C16.6987 22.0271 16.5371 21.8531 16.42 21.65C16.2233 21.9245 15.9676 22.1514 15.6717 22.3141C15.3758 22.4767 15.0471 22.571 14.71 22.59Z" fill="black"/>
      <path d="M26.24 18.92C24.4445 20.5437 22.7512 22.277 21.17 24.11C19.5986 25.9361 17.8238 27.5768 15.88 29C15.66 28.47 14.26 27.49 14.26 27.49C14.26 27.49 11.13 25.35 9.08 23.67C7.97414 22.7373 6.9287 21.7353 5.95 20.67L3.95 20.56C6.84018 24.7655 11.0702 27.8676 15.95 29.36C16.81 29.22 19.22 27.5 21.02 26.1C23.1389 24.2819 25.124 22.3134 26.96 20.21C27.4625 19.621 27.8493 18.9425 28.1 18.21C27 18.6 26.24 18.92 26.24 18.92Z" fill="#F06351"/>
    </g>
    <defs>
      <clipPath id="clip0_153_267">
        <rect width="33.32" height="37.61" fill="white"/>
      </clipPath>
    </defs>
  </symbol>

  <symbol id="logo__sign" viewBox="0 0 101 18">
    <g clip-path="url(#clip0_135_3354)">
      <path d="M1.26449 16.5385C0.36955 15.2762 -0.0747041 13.7627 1.02073e-05 12.2308V5.84615C-0.108365 4.29774 0.308071 2.75746 1.18546 1.46154C2.05478 0.461538 3.39829 0 5.37403 0C7.34978 0 8.61425 0.461538 9.40455 1.30769C10.2626 2.37941 10.6846 3.72136 10.59 5.07692V6.61539H6.71754V4.84615C6.74881 4.32289 6.66808 3.799 6.48045 3.30769C6.38016 3.10938 6.2212 2.9448 6.02403 2.83513C5.82686 2.72547 5.60049 2.67572 5.37403 2.69231C4.82082 2.69231 4.42568 2.84615 4.26762 3.23077C4.08883 3.77733 4.00862 4.34988 4.03053 4.92308V13.1538C3.98879 13.71 4.0978 14.267 4.34665 14.7692C4.5047 15.1538 4.89985 15.3077 5.45306 15.3077C6.00627 15.3077 6.32239 15.1538 6.48045 14.7692C6.66013 14.2494 6.74049 13.7019 6.71754 13.1538V11.3077H10.59V12.8462C10.6704 14.2238 10.2508 15.5852 9.40455 16.6923C8.61425 17.6154 7.27075 18.0769 5.37403 18.0769C3.47732 18 2.05478 17.5385 1.26449 16.5385Z" fill="#111111"/>
      <path d="M15.2527 0.23077H19.7574L23.0767 17.7692H19.4413L18.8091 14.0769H16.2011L15.5689 17.7692H11.8545L15.2527 0.23077ZM18.493 11.7692L17.5446 4.92308L16.5963 11.7692H18.493Z" fill="#111111"/>
      <path d="M25.8427 3.15385H23.1557V0.23077H32.5602V3.07692H29.8732V17.7692H25.8427V3.15385Z" fill="#111111"/>
      <path d="M39.752 0.23077H46.7066V2.07692H42.2019V7.84615H45.8372V9.61539H42.2019V16.0769H46.7066V17.8462H39.6729V0.23077H39.752Z" fill="#111111"/>
      <path d="M48.7613 0.23077H50.5L55.6369 11.8462V0.23077H57.6917V17.7692H56.1111L50.8951 5.76923V17.7692H48.7613V0.23077Z" fill="#111111"/>
      <path d="M60.0626 0.23077H67.0172V2.07692H62.5125V7.84615H66.1479V9.61539H62.5125V16.0769H67.0172V17.8462H60.0626V0.23077Z" fill="#111111"/>
      <path d="M69.072 0.23077H72.7074C74.1375 0.134618 75.5587 0.514353 76.7379 1.30769C77.6072 2 78.0024 3.23077 78.0024 4.84616C78.0024 7.07692 77.2911 8.46154 75.7895 8.92308L78.3185 17.6923H75.8686L73.4977 9.46154H71.5219V17.6923H68.993V0.23077H69.072ZM72.5493 7.76923C73.364 7.83458 74.1761 7.61652 74.8412 7.15385C75.3154 6.76923 75.5524 6 75.5524 4.84616C75.5743 4.27296 75.4941 3.7004 75.3154 3.15385C75.1375 2.76166 74.832 2.4373 74.446 2.23077C73.9017 1.98934 73.3042 1.8836 72.7074 1.92308H71.601V7.69231H72.5493V7.76923Z" fill="#111111"/>
      <path d="M81.1635 16.4615C80.342 15.1166 79.9564 13.5617 80.0571 12V6.15384C80.0376 5.03911 80.1705 3.9268 80.4522 2.84615C80.7167 2.03863 81.2437 1.33668 81.9538 0.846152C82.8362 0.337748 83.8542 0.0967294 84.8779 0.153844C86.5375 0.153844 87.723 0.53846 88.4343 1.38461C89.2524 2.50191 89.6438 3.86237 89.5407 5.23077V5.84615H87.1698V5.30769C87.1734 4.66346 87.1205 4.0201 87.0117 3.38461C86.9451 2.98303 86.7178 2.62348 86.3795 2.38461C85.9353 2.10082 85.4081 1.96579 84.8779 2C84.3113 1.96466 83.7504 2.12843 83.2973 2.46154C83.1114 2.61401 82.9595 2.80181 82.8508 3.01344C82.742 3.22507 82.6789 3.45608 82.6651 3.69231C82.5609 4.37999 82.5081 5.07411 82.507 5.76923V12.3077C82.4488 13.3038 82.6105 14.3006 82.9812 15.2308C83.2973 15.8462 83.9296 16.0769 84.8779 16.0769C85.2524 16.1223 85.6322 16.0589 85.9697 15.8947C86.3072 15.7304 86.5873 15.4727 86.7746 15.1538C87.1922 14.1811 87.3812 13.1299 87.3278 12.0769V10.8462H85.036V9.07692H89.6197V17.7692H88.0391L87.802 15.7692C87.5948 16.4395 87.1634 17.0231 86.5763 17.4273C85.9892 17.8315 85.2801 18.0331 84.5618 18C83.9088 18.0374 83.2565 17.9164 82.6633 17.6479C82.0702 17.3794 81.5549 16.9717 81.1635 16.4615Z" fill="#111111"/>
      <path d="M94.6776 11.6154L90.8052 0.30769H93.1761L95.9421 8.76923L98.6291 0.30769H101L97.1275 11.6154V17.7692H94.7566V11.6154H94.6776Z" fill="#111111"/>
    </g>
    <defs>
      <clipPath id="clip0_135_3354">
        <rect width="101" height="18" fill="white"/>
      </clipPath>
    </defs>
  </symbol>

  <symbol id="logo" viewBox="0 0 174 51">
    <g clip-path="url(#clip0_2403_706)">
      <path d="M51.5819 20.854C50.0969 17.265 47.7053 14.1312 44.6456 11.7649C41.5858 9.39869 37.9646 7.88262 34.143 7.36781C30.3214 6.85301 26.4328 7.35745 22.8646 8.83086C19.2965 10.3043 16.1735 12.6952 13.8068 15.7654C11.4402 18.8355 9.9125 22.4777 9.37609 26.329C8.83968 30.1802 9.31325 34.106 10.7496 37.7151C12.186 41.3242 14.535 44.4906 17.5625 46.8987C20.59 49.3068 24.1903 50.8726 28.0046 51.4399C27.505 49.6238 26.9967 47.6166 26.5488 45.4878C27.8519 46.3405 29.2235 47.0816 30.6492 47.7035C30.6492 47.7035 30.7526 49.5804 30.8904 51.6745C32.4308 51.7013 33.9698 51.5644 35.4818 51.2661C35.4427 51.0477 35.4427 50.8241 35.4818 50.6057C35.7316 48.9808 36.4208 46.0526 36.5586 44.167C37.552 43.2297 38.3948 42.1421 39.0567 40.9434L39.005 41.3257C38.5312 45.0273 37.5406 48.9808 36.9376 50.0757C36.7424 50.4381 36.5021 50.7739 36.2226 51.0749C39.3408 50.3371 42.2626 48.924 44.7855 46.9336C47.3083 44.9433 49.3718 42.4233 50.8329 39.5484C52.2941 36.6735 53.1179 33.5124 53.2472 30.2843C53.3765 27.0563 52.8083 23.8385 51.5819 20.854ZM50.3156 24.1472C49.9366 24.5208 49.1527 24.7728 49.0235 23.6432C48.8942 22.5136 48.8598 21.7229 48.8598 21.7229C48.8598 21.7229 47.1972 18.7425 46.577 18.7078C45.9568 18.673 41.5549 21.7229 40.3919 23.0524C39.3841 24.1733 39.1859 24.0951 39.1859 26.0675C39.1859 27.5534 39.3755 33.1666 39.2721 37.459L32.2514 39.3446C30.0448 39.9834 27.8007 40.4825 25.5323 40.8391L24.6709 35.7733H24.5503L22.3364 24.3297C22.3364 24.3297 19.0543 23.0784 17.8483 22.7396C17.2821 22.4897 16.6568 22.4084 16.0462 22.5054C15.4356 22.6024 14.8653 22.8736 14.4026 23.287C13.9306 23.7039 13.5531 24.2185 13.296 24.7958C13.0388 25.373 12.908 25.9994 12.9124 26.6323C13.0945 27.0362 13.2331 27.4585 13.3258 27.8922C13.3689 28.3093 12.2921 28.2659 11.603 28.2659C10.9138 28.2659 10.8105 27.0146 11.3532 25.5462C11.7766 24.417 12.3013 23.3292 12.921 22.2964C13.387 21.3738 13.9881 20.5273 14.7041 19.7852C14.7041 19.7852 14.8247 19.4898 15.7809 19.5767C16.7371 19.6636 22.0521 19.9503 22.0521 19.9503L22.0952 17.9779C27.8722 17.1733 33.6987 16.7842 39.5305 16.8135C39.5305 17.3436 39.5305 17.8736 39.5305 18.4037C41.7394 17.3869 44.118 16.7974 46.5425 16.6658C46.6723 16.6625 46.8008 16.6917 46.9166 16.7509C47.0323 16.81 47.1317 16.8973 47.2058 17.0047C47.4987 17.3783 49.2819 19.6115 49.4886 19.933C50.0677 20.7677 50.5942 21.6383 51.065 22.5397C50.9037 23.1104 50.6505 23.6505 50.3156 24.1385V24.1472Z" fill="#FDC305"/>
      <path d="M48.6363 18.8294C49.0411 19.3508 49.3943 19.8113 49.4977 19.9503C50.0768 20.7851 50.6033 21.6557 51.0741 22.5571C50.9102 23.1091 50.6601 23.6312 50.3333 24.1038C49.9543 24.4774 49.1704 24.7294 49.0411 23.5998C48.9119 22.4702 48.8602 21.7229 48.8602 21.7229C48.8602 21.7229 47.1977 18.7425 46.5775 18.7078C45.9572 18.673 41.5553 21.7229 40.3924 23.0524C39.3845 24.1733 39.1864 24.0951 39.1864 26.0675C39.1864 27.3709 39.3328 31.8458 39.2984 35.8254C40.8576 35.9992 43.149 36.4337 43.8381 37.459C43.8381 37.459 43.5883 31.2202 50.5659 34.4873C50.5659 34.4873 50.8071 25.9806 60.4378 28.1616C57.1639 24.2844 53.1505 21.1107 48.6363 18.8294Z" fill="#F06351"/>
      <path d="M39.5654 16.8135C39.6004 11.9987 39.1967 7.1907 38.3594 2.45035C38.3594 2.45035 38.2302 1.32075 37.61 2.24181C37.0982 3.34291 36.7499 4.51402 36.5762 5.71747C32.8938 5.47914 29.1975 5.57802 25.5327 6.0129C24.8264 3.62338 23.6204 2.53724 23.0432 2.82398C22.466 3.11072 22.3971 5.67403 22.3971 5.67403L22.1129 17.9779C27.8956 17.1725 33.7279 16.7834 39.5654 16.8135Z" fill="#F06351"/>
      <path d="M39.0651 40.9434C39.1771 40.0136 39.2374 38.7798 39.2718 37.4156L32.2515 39.3011C30.0459 39.9546 27.8019 40.4682 25.5327 40.8391L26.4889 45.1837C26.4889 45.2793 26.4889 45.3748 26.5492 45.4704C27.8522 46.3231 29.2237 47.0642 30.6494 47.6862C32.7328 46.6815 34.7171 45.4799 36.5757 44.0975V44.1497C37.5646 43.217 38.4044 42.1354 39.0651 40.9434Z" fill="#E55645"/>
      <path d="M27.5657 14.0938C27.5226 14.0069 28.4271 14.6847 28.7803 14.8932C29.1334 15.1018 29.3057 15.2582 29.3057 15.4059C29.3057 15.5536 29.0817 15.7013 28.7716 15.7013C28.4615 15.7013 27.9792 15.5971 27.9103 15.4754C27.8413 15.3538 28.4271 15.4754 28.72 15.4754H28.9698C28.4394 15.084 27.9667 14.6189 27.5657 14.0938Z" fill="black"/>
      <path d="M34.0264 14.1894C34.0264 14.1894 33.165 15.3016 33.0875 15.3538C33.0099 15.4059 32.941 15.6492 33.2511 15.6057C33.6071 15.5521 33.9585 15.4708 34.302 15.3624C34.3968 15.3103 34.3623 15.1887 34.1986 15.206C34.035 15.2234 33.6129 15.2495 33.3373 15.3016L34.0694 14.1981C34.0694 14.1981 34.0953 14.0938 34.0264 14.1894Z" fill="black"/>
      <path d="M31.3215 19.4985C31.7208 19.321 32.0508 19.0156 32.2604 18.6296C32.5016 18.0561 32.2604 17.8389 31.8814 17.7607C31.36 17.6647 30.8218 17.7702 30.374 18.0561C30.038 18.3776 30.0811 18.6904 30.374 18.925C30.6649 19.1552 30.9832 19.3478 31.3215 19.4985Z" fill="black"/>
      <path d="M31.0113 20.5933C30.9124 20.7904 30.778 20.9672 30.615 21.1147C30.3697 21.3138 30.0681 21.4294 29.7536 21.4449C29.2794 21.4918 28.8052 21.3552 28.4271 21.0625C28.2535 20.9601 28.0989 20.8278 27.9706 20.6715C27.8844 20.5769 27.7785 20.5027 27.6605 20.4543C27.6605 20.4543 28.3065 24.0255 29.8742 24.599C31.4419 25.1725 31.7348 23.9387 31.7779 23.6085C31.8304 22.6196 31.5841 21.6379 31.0715 20.7932C31.0715 20.5325 31.0543 20.7063 31.0113 20.5933Z" fill="#F06351"/>
      <path d="M29.5469 21.5839C29.1438 21.5254 28.7566 21.3852 28.4087 21.1716C28.0608 20.9581 27.7594 20.6756 27.5226 20.3413C27.5015 20.3174 27.4897 20.2865 27.4897 20.2544C27.4897 20.2224 27.5015 20.1915 27.5226 20.1676C27.5339 20.156 27.5473 20.1468 27.5621 20.1405C27.5769 20.1343 27.5927 20.131 27.6088 20.131C27.6248 20.131 27.6407 20.1343 27.6555 20.1405C27.6703 20.1468 27.6837 20.156 27.6949 20.1676C27.9081 20.4692 28.1785 20.7252 28.4905 20.9206C28.8025 21.116 29.1499 21.2469 29.5124 21.3058C29.7993 21.2841 30.0769 21.194 30.3225 21.0429C30.5681 20.8919 30.7746 20.6842 30.9251 20.4369L31.0457 20.2718L31.1319 20.463C31.1319 20.463 31.4592 21.1234 31.9932 21.1581C32.5273 21.1929 32.9063 20.7932 33.3973 20.0372C33.4156 20.0096 33.444 19.9904 33.4763 19.9838C33.5086 19.9773 33.5422 19.984 33.5696 20.0025C33.597 20.0209 33.616 20.0496 33.6225 20.0822C33.629 20.1147 33.6223 20.1486 33.604 20.1762C33.0298 21.0278 32.4871 21.4362 31.976 21.4014C31.7785 21.375 31.5893 21.3043 31.4224 21.1946C31.2554 21.0848 31.115 20.9388 31.0113 20.7671C30.8427 21.0045 30.6238 21.201 30.3705 21.3423C30.1172 21.4836 29.8358 21.5661 29.5469 21.5839Z" fill="black"/>
      <path d="M31.2353 33.2795C33.0192 33.2795 34.4655 31.8207 34.4655 30.0211C34.4655 28.2215 33.0192 26.7626 31.2353 26.7626C29.4513 26.7626 28.0051 28.2215 28.0051 30.0211C28.0051 31.8207 29.4513 33.2795 31.2353 33.2795Z" fill="#FDC305"/>
      <path d="M35.5163 27.3709L32.8201 28.5092L33.8107 23.6172L27.3503 32.0978L30.0465 30.9595L29.0559 35.8602L35.5163 27.3709ZM29.1506 30.6988L32.734 25.998L32.0363 29.4737L33.7591 28.7611L30.1498 33.4707L30.8476 29.995L29.1506 30.6988Z" fill="#111111"/>
      <path d="M27.9447 29.4215C28.4776 29.4215 28.9095 28.9858 28.9095 28.4483C28.9095 27.9109 28.4776 27.4751 27.9447 27.4751C27.4119 27.4751 26.98 27.9109 26.98 28.4483C26.98 28.9858 27.4119 29.4215 27.9447 29.4215Z" fill="#111111"/>
      <path d="M33.5612 32.9493C33.9371 32.9493 34.2417 32.642 34.2417 32.2629C34.2417 31.8838 33.9371 31.5764 33.5612 31.5764C33.1854 31.5764 32.8807 31.8838 32.8807 32.2629C32.8807 32.642 33.1854 32.9493 33.5612 32.9493Z" fill="#111111"/>
      <path d="M34.3882 31.0638C34.5547 31.0638 34.6897 30.9276 34.6897 30.7597C34.6897 30.5917 34.5547 30.4555 34.3882 30.4555C34.2217 30.4555 34.0867 30.5917 34.0867 30.7597C34.0867 30.9276 34.2217 31.0638 34.3882 31.0638Z" fill="#111111"/>
      <path d="M39.5224 18.3863C37.9674 19.8002 36.5029 21.3123 35.1377 22.9133C33.7778 24.5028 32.2433 25.9312 30.5635 27.171C30.374 26.7105 29.1594 25.8503 29.1594 25.8503C29.1594 25.8503 26.4545 23.9821 24.6799 22.5136C23.7207 21.7077 22.8169 20.8368 21.9751 19.9069L20.2522 19.8113C22.7392 23.4757 26.3826 26.183 30.5893 27.4925C31.3302 27.3709 33.4148 25.8677 34.974 24.6425C36.8187 23.0601 38.5461 21.3437 40.1426 19.5072C40.5717 18.9928 40.9044 18.4039 41.1246 17.7693C40.1426 18.0995 39.5224 18.3863 39.5224 18.3863Z" fill="#F06351"/>
      <path d="M22.3368 24.3297C22.3368 24.3297 19.0548 23.0784 17.8488 22.7396C17.2825 22.4897 16.6572 22.4084 16.0466 22.5054C15.4361 22.6024 14.8658 22.8736 14.4031 23.287C13.931 23.7039 13.5536 24.2185 13.2964 24.7958C13.0393 25.373 12.9084 25.9994 12.9128 26.6323C13.0949 27.0362 13.2335 27.4585 13.3263 27.8922C13.3694 28.3093 12.2926 28.2659 11.6034 28.2659C10.9143 28.2659 10.8109 27.0146 11.3536 25.5462C11.777 24.417 12.3018 23.3292 12.9214 22.2964C8.22664 24.7641 0 30.4642 0 30.4642C2.35316 30.3211 4.71429 30.3909 7.0551 30.6728C11.5776 31.1333 11.3622 34.7306 11.3622 34.7306C12.9529 34.2883 14.574 33.9659 16.2121 33.7661C18.0383 33.6445 18.1675 35.6082 18.1675 35.6082L18.6241 38.9622C19.3173 38.2057 20.0819 37.5189 20.9069 36.9116C21.9703 36.0529 23.3243 35.6476 24.6799 35.782L22.3368 24.3297Z" fill="#F06351"/>
      <path d="M73.7899 36.4945C72.9025 35.1681 72.4782 33.5814 72.584 31.9848V25.468C72.472 23.8596 72.8899 22.2589 73.7727 20.9148C74.5709 19.8779 75.9348 19.3624 77.8643 19.3682C79.7938 19.374 81.1002 19.8287 81.7836 20.7324C82.6168 21.8522 83.0234 23.2368 82.9292 24.6338V26.1631H79.3631V24.5035C79.3583 24.0668 79.3208 23.6311 79.2511 23.2001C79.208 22.8881 79.066 22.5985 78.8462 22.3746C78.7106 22.2573 78.5531 22.1684 78.3831 22.1132C78.213 22.058 78.0337 22.0376 77.8557 22.0531C77.6 22.0146 77.3388 22.0565 77.1076 22.1731C76.8764 22.2898 76.6864 22.4754 76.5636 22.7048C76.3371 23.315 76.2374 23.9657 76.2707 24.6164V32.8885C76.2314 33.5435 76.3465 34.1986 76.6066 34.8001C76.7309 35.0171 76.9153 35.1927 77.1372 35.3054C77.3591 35.4181 77.6088 35.463 77.8557 35.4344C78.0982 35.469 78.3454 35.4255 78.5619 35.31C78.7785 35.1946 78.9533 35.0131 79.0616 34.7914C79.27 34.1801 79.3606 33.5342 79.3286 32.8885V31.1507H82.8948V32.6539C82.9997 34.0715 82.6263 35.4832 81.8353 36.6596C81.0772 37.6154 79.7679 38.0846 77.9073 38.0846C76.0467 38.0846 74.591 37.5633 73.7899 36.4945Z" fill="#111111"/>
      <path d="M87.788 19.6201H91.871L95.3166 37.8674H91.9227L91.3111 33.8356H88.4513L87.7622 37.8413H84.3167L87.788 19.6201ZM90.9321 31.5417L89.8468 24.208L88.77 31.5417H90.9321Z" fill="#111111"/>
      <path d="M97.9615 22.3659H95.1707V19.6201H104.405V22.3659H101.648V37.8413H97.9529L97.9615 22.3659Z" fill="#111111"/>
      <path d="M111.65 19.6201H118.653V21.5144H114.174V27.536H117.809V29.3346H114.174V36.0166H118.696V37.8413H111.65V19.6201Z" fill="#444444"/>
      <path d="M120.729 19.6201H122.452L127.62 31.7241V19.6201H129.722V37.8674H128.111L122.943 25.4245V37.8413H120.807L120.729 19.6201Z" fill="#444444"/>
      <path d="M132.505 19.6201H139.499V21.5144H135.02V27.536H138.69V29.3346H135.055V36.0166H139.551V37.8413H132.505V19.6201Z" fill="#444444"/>
      <path d="M141.576 19.6201H145.211C146.643 19.5039 148.07 19.9075 149.234 20.7584C150.095 21.5144 150.517 22.7482 150.517 24.46C150.517 26.7771 149.773 28.1935 148.286 28.709L150.87 37.8413H148.424L146.055 29.2912H144.1V37.8413H141.576V19.6201ZM145.021 27.4404C145.851 27.5214 146.681 27.2858 147.347 26.78C147.618 26.4569 147.82 26.0812 147.942 25.6763C148.063 25.2713 148.101 24.8456 148.053 24.4253C148.071 23.8357 147.986 23.2477 147.804 22.6874C147.73 22.4808 147.615 22.2913 147.467 22.1301C147.319 21.969 147.141 21.8393 146.942 21.749C146.383 21.5176 145.78 21.4137 145.176 21.4449H144.065V27.4751L145.021 27.4404Z" fill="#444444"/>
      <path d="M153.911 36.4945C153.088 35.0926 152.707 33.4714 152.817 31.8458V25.7634C152.788 24.5896 152.933 23.418 153.248 22.2877C153.497 21.438 154.026 20.6992 154.747 20.1936C155.618 19.6642 156.626 19.41 157.641 19.4637C158.298 19.4007 158.961 19.4832 159.582 19.7053C160.204 19.9274 160.771 20.2839 161.242 20.7497C162.068 21.9176 162.459 23.3426 162.344 24.7728V25.4506H159.976V24.8858C159.992 24.2103 159.94 23.5348 159.821 22.8699C159.742 22.4437 159.509 22.0626 159.166 21.8011C158.719 21.5349 158.202 21.4108 157.684 21.4449C157.122 21.3963 156.562 21.5709 156.125 21.9315C155.768 22.2734 155.534 22.7261 155.462 23.2175C155.353 23.9332 155.304 24.657 155.315 25.3811V32.1499C155.247 33.1785 155.421 34.2088 155.824 35.1564C156.057 35.4478 156.354 35.6814 156.691 35.8395C157.028 35.9975 157.396 36.0757 157.768 36.0682C158.139 36.0606 158.504 35.9675 158.835 35.7959C159.165 35.6243 159.452 35.3788 159.674 35.0782C160.089 34.076 160.269 32.9905 160.2 31.9066V30.6206H157.908V28.822H162.474V37.8413H160.914L160.665 35.7472C160.467 36.4429 160.042 37.0508 159.459 37.472C158.876 37.8933 158.168 38.103 157.452 38.0672C156.778 38.1272 156.1 38.0144 155.481 37.7395C154.862 37.4645 154.322 37.0363 153.911 36.4945Z" fill="#444444"/>
      <path d="M167.711 31.4113L163.809 19.6201H166.152L168.917 28.4136L171.639 19.6201H174.008L170.132 31.4113V37.8413H167.72L167.711 31.4113Z" fill="#444444"/>
    </g>
    <defs>
      <clipPath id="clip0_2403_706">
        <rect width="174" height="51.6832" fill="white"/>
      </clipPath>
    </defs>
  </symbol>

  <symbol id="cat__sit" viewBox="0 0 50 53">
    <circle cx="25" cy="28" r="25" fill="#68B738"/>
    <g clip-path="url(#clip0_94_6)">
    <path d="M35.2034 0H35.008C34.6778 0.187081 34.415 0.473924 34.2571 0.819588C33.968 1.37738 33.7453 1.96735 33.5937 2.57732C33.5612 2.76073 33.4688 2.92811 33.331 3.05315C33.1932 3.17818 33.0179 3.25377 32.8326 3.26804C32.2658 3.36597 31.7288 3.59243 31.2626 3.93012C30.7965 4.26781 30.4135 4.7078 30.1429 5.21649C29.7708 5.87697 29.4526 6.5665 29.1914 7.27835C28.4611 9.17526 27.9006 11.134 27.2114 13.0464C26.8874 13.9175 26.872 13.9175 25.8949 13.9175C24.7274 13.9175 24.8097 13.7371 24.7943 15.0258C24.7943 15.433 24.9177 15.6392 25.3497 15.6186C25.4834 15.6186 25.684 15.5515 25.7354 15.7268C25.7869 15.9021 25.612 15.9794 25.5091 16.0825C24.8994 16.7029 24.1276 17.1388 23.2823 17.3402C22.3051 17.6031 21.3074 17.8093 20.356 18.1289C17.9131 18.9485 15.6554 20.0928 13.8966 22.0309C12.8681 23.2347 12.0445 24.6001 11.4589 26.0722C9.57143 30.5258 8.656 35.2165 7.94629 39.9536C7.612 42.1753 7.37543 44.4072 7.19543 46.6546C7.10286 47.7577 7 48.8763 7 50H24.1411C24.1696 49.7731 24.1283 49.5429 24.0229 49.3402C23.858 48.9289 23.5901 48.5672 23.2451 48.29C22.9 48.0128 22.4895 47.8295 22.0531 47.7577C21.6931 47.6753 21.652 47.567 21.8731 47.2835C22.2338 46.801 22.5103 46.2607 22.6909 45.6856C23.5291 43.2062 23.8531 40.6186 24.2594 38.0567C24.4889 36.0999 25.0894 34.2051 26.0286 32.4742C26.7611 31.2002 27.7382 30.0842 28.9034 29.1907C29.3303 28.866 29.3457 28.866 29.4177 29.4175C29.4691 29.7835 29.4794 30.1598 29.5051 30.5309C29.6595 32.9662 29.6285 35.4097 29.4126 37.8402C29.2184 39.7242 29.1926 41.6217 29.3354 43.5103C29.5399 45.7029 29.9304 47.8739 30.5029 50H37.3429C37.2536 49.442 36.9973 48.9243 36.6078 48.5156C36.2184 48.1069 35.7143 47.8264 35.1623 47.7113C34.5177 47.6087 33.8587 47.6438 33.2286 47.8144C32.92 47.8866 32.7914 47.8144 32.7657 47.4794C32.5529 44.7505 32.7261 42.0051 33.28 39.3247C33.966 36.2304 34.4912 33.1025 34.8537 29.9536C34.9887 28.6819 35.3881 27.4528 36.0263 26.3454C36.6383 25.2526 37.1731 24.1186 37.7749 23.0206C38.0138 22.6214 38.1575 22.1723 38.195 21.7083C38.2325 21.2443 38.1626 20.7779 37.9909 20.3454C37.852 19.9794 37.7183 19.6082 37.5486 19.2577C37.0343 18.2526 36.52 17.2577 36.0469 16.2423C35.7949 15.7268 35.8514 15.6649 36.412 15.6495C37.2503 15.6495 37.2503 15.6495 37.2657 14.8041C37.2657 14.6907 37.2657 14.5773 37.2657 14.4639C37.2657 14.1082 37.132 13.9124 36.7514 13.9485C36.4943 13.9485 36.2371 13.9485 35.9697 13.9485C35.6149 13.9485 35.512 13.799 35.5994 13.433C35.7729 12.838 36.1142 12.306 36.5823 11.9009C37.0503 11.4958 37.6252 11.2349 38.2377 11.1495C39.3772 11.0505 40.5251 11.1252 41.6423 11.3711C41.7712 11.4118 41.9109 11.4001 42.0312 11.3383C42.1515 11.2766 42.2427 11.1699 42.2851 11.0412C42.4909 10.5258 42.7171 10.0103 42.9486 9.49484C43.001 9.40339 43.0242 9.29801 43.015 9.19293C43.0058 9.08785 42.9647 8.98812 42.8971 8.90722C41.2514 6.81443 39.4669 4.86082 37.0343 3.60825C36.9168 3.55754 36.8138 3.47814 36.7347 3.3773C36.6557 3.27646 36.6031 3.15738 36.5817 3.03093C36.444 2.29408 36.225 1.57487 35.9286 0.886598C35.7895 0.519904 35.5349 0.20865 35.2034 0V0Z" fill="black"/>
    </g>
    <defs>
    <clipPath id="clip0_94_6">
    <rect width="50" height="53" fill="white" x="0" transform="translate(7)"/>
    </clipPath>
    </defs>
  </symbol>

  <symbol id="cat__back" viewBox="0 0 67 50">
    <circle cx="34.5" cy="25" r="25" fill="#68B738"/>
    <g clip-path="url(#clip0_95_1)">
    <path d="M61.55 13.9C62.1272 12.9815 62.8944 12.1973 63.8 11.6C64.3 11.25 64.6 11.25 64.9 11.9C65.3 12.85 65.65 13.85 65.35 14.9C65.2954 15.0781 65.2851 15.2668 65.3199 15.4497C65.3548 15.6327 65.4338 15.8044 65.55 15.95C65.85 16.35 66.1 16.75 66.35 17.1C66.6902 17.5319 66.9109 18.0456 66.9899 18.5897C67.0689 19.1339 67.0034 19.6892 66.8 20.2C66.6164 20.6959 66.5817 21.2346 66.7 21.75C66.7999 22.245 66.7999 22.755 66.7 23.25C66.6596 23.6207 66.5095 23.9709 66.2691 24.2559C66.0286 24.5409 65.7086 24.7478 65.35 24.85C64.7104 24.9717 64.1396 25.3284 63.75 25.85C63.7028 25.9268 63.6365 25.9901 63.5577 26.0339C63.4789 26.0777 63.3901 26.1005 63.3 26.1C62.7 26.2 61.2 24.85 61.2 24.25V23.95C61.25 22.15 61.15 22 59.5 21.25C59.1546 21.1282 58.8452 20.9219 58.6 20.65C58.3 20.25 57.9 20.3 57.45 20.45C57 20.6 56.75 20.9 56.8 21.4C56.9508 22.6104 57.0009 23.8313 56.95 25.05C56.9533 25.1891 56.9875 25.3257 57.05 25.45C58.6 27.7 59.2 30.35 59.95 32.9C60.55 34.85 61.65 35.9 63.65 36.05C63.97 36.0755 64.2876 36.1257 64.6 36.2C65.0109 36.266 65.3926 36.4538 65.6956 36.739C65.9987 37.0242 66.2092 37.3938 66.3 37.8C66.65 38.85 66.45 39.1 65.4 39.1H62.15C61.7292 39.1213 61.3167 38.9778 61 38.7C60.4939 38.2729 59.9191 37.9348 59.3 37.7C58.6155 37.4473 58.0231 36.9943 57.6 36.4C57.0143 35.5817 56.3439 34.8275 55.6 34.15C54.2 32.7 52.7 31.3 51.4 29.8C50.4103 28.7779 49.8395 27.4221 49.8 26C49.8 25.55 49.7 25.35 49.2 25.55C49.0503 25.645 48.8773 25.6969 48.7 25.7C47.3 25.7 46.6 26.55 46.1 27.8C45.65 28.85 45.05 29.85 44.5 30.9C44.1881 31.5572 44.0178 32.2727 44 33C44 34.2 44.3 34.6 45.4 35C46.1 35.25 46.75 35.5 47.1 36.2C47.5 37 47.4 37.2 46.55 37.25H43.15C42.954 37.2694 42.7568 37.2267 42.5864 37.1281C42.4159 37.0294 42.2807 36.8796 42.2 36.7L41.3 35.2C41.0347 34.8086 40.8648 34.3605 40.8041 33.8916C40.7433 33.4227 40.7932 32.9461 40.95 32.5C41.1664 31.6317 41.1835 30.7258 41 29.85C40.8739 29.24 40.8848 28.6097 41.0318 28.0045C41.1788 27.3993 41.4582 26.8342 41.85 26.35C42.15 26 42.15 25.85 41.65 25.75C39.6054 25.3157 37.6233 24.627 35.75 23.7C35.7367 23.7 35.724 23.6947 35.7146 23.6853C35.7052 23.676 35.7 23.6632 35.7 23.65C34.1 23.05 33.8 23.15 33.35 24.8C32.95 26.2 32.55 27.6 32.25 29.05C31.9 30.65 32.3 32.15 32.8 33.65C33 34.25 33.6 34.2 34.05 34.35C35.05 34.65 35.9 35.05 36.3 36.1C36.65 36.9 36.6 37 35.75 37C34.9 37 34.05 36.95 33.15 37C32.3905 37.0137 31.6493 36.7667 31.05 36.3C28.65 34.7 27.95 32.25 27.75 29.6C27.65 27.95 26.75 26.65 25.7 25.4C25.5 25.15 25.3 25.05 25 25.25C23.9267 25.8418 22.8062 26.3435 21.65 26.75C19.2371 27.602 17.1198 29.1292 15.55 31.15C14.9638 31.8875 14.5842 32.7675 14.45 33.7C14.3 34.6 14.55 35 15.45 35.25C16.35 35.5 16.8 36 16.9 36.95C16.95 37.35 16.8 37.55 16.4 37.55H12.35C12.2174 37.5406 12.0891 37.4993 11.9759 37.4297C11.8628 37.36 11.7681 37.2641 11.7 37.15C11.0719 36.3724 10.7358 35.3995 10.75 34.4C10.7237 32.6724 10.8745 30.9468 11.2 29.25C11.2667 28.7418 11.4564 28.2576 11.7527 27.8394C12.0489 27.4212 12.4427 27.0815 12.9 26.85C15.85 25.45 17.4 22.8 18.8 20.05C19.1 19.5 18.85 19.4 18.35 19.45C16.9506 19.6442 15.6248 20.1952 14.5 21.05C13.0271 22.1244 11.6396 23.3113 10.35 24.6C8.9748 25.9968 7.15133 26.8643 5.19998 27.05C1.54998 27.25 -0.150021 25.2 -2.12286e-05 21.9C0.03351 20.7748 0.457802 19.6964 1.19998 18.85C1.45799 18.5155 1.80985 18.2655 2.21061 18.1319C2.61138 17.9983 3.04287 17.9872 3.44998 18.1C4.19998 18.3 4.39998 18.7 4.09998 19.45C3.94998 19.75 3.74998 20 3.59998 20.3C3.38428 20.6065 3.21574 20.9435 3.09998 21.3C2.54998 22.8 3.29998 23.85 4.84998 24C6.49998 24.15 7.84998 23.45 9.09998 22.45C10.6059 21.2441 11.9503 19.8493 13.1 18.3C13.9596 17.1687 15.042 16.2256 16.2804 15.529C17.5188 14.8325 18.8868 14.3971 20.3 14.25C21.45 14.1 22.45 13.6 23.55 13.3C25.6072 12.6728 27.7495 12.3692 29.9 12.4C30.896 12.4415 31.8883 12.2533 32.8 11.85C35.25 10.85 37.8 10.85 40.35 11.35C42.35 11.75 44.35 12.25 46.3 12.75C47.4605 12.9662 48.6537 12.9321 49.8 12.65C51.9943 12.0937 54.2389 11.7587 56.5 11.65C57.9812 11.5779 59.4576 11.8697 60.8 12.5C61.8 12.95 61.8 12.95 61.55 13.9Z" fill="black"/>
    </g>
    <defs>
    <clipPath id="clip0_95_1">
    <rect width="67" height="50" fill="white" x="0" transform="translate(0 11)"/>
    </clipPath>
    </defs>
  </symbol>

  <symbol id="academy__logo--text" viewBox="0 0 114 34">
    <path d="M1.28125 21V9.54688H2.79688V14.25H8.75V9.54688H10.2656V21H8.75V15.6016H2.79688V21H1.28125ZM15.7109 21V10.8984H11.9375V9.54688H21.0156V10.8984H17.2266V21H15.7109ZM22.5312 21V9.54688H24.8125L27.5234 17.6562C27.7734 18.4115 27.9557 18.9766 28.0703 19.3516C28.2005 18.9349 28.4036 18.3229 28.6797 17.5156L31.4219 9.54688H33.4609V21H32V11.4141L28.6719 21H27.3047L23.9922 11.25V21H22.5312ZM35.8438 21V9.54688H37.3594V19.6484H43V21H35.8438ZM46.5234 21L50.9219 9.54688H52.5547L57.2422 21H55.5156L54.1797 17.5312H49.3906L48.1328 21H46.5234ZM49.8281 16.2969H53.7109L52.5156 13.125C52.151 12.1615 51.8802 11.3698 51.7031 10.75C51.5573 11.4844 51.3516 12.2135 51.0859 12.9375L49.8281 16.2969ZM63.6875 17.9609L65.0703 18.1406C64.9193 19.0938 64.5312 19.8411 63.9062 20.3828C63.2865 20.9193 62.5234 21.1875 61.6172 21.1875C60.4818 21.1875 59.5677 20.8177 58.875 20.0781C58.1875 19.3333 57.8438 18.2682 57.8438 16.8828C57.8438 15.987 57.9922 15.2031 58.2891 14.5312C58.5859 13.8594 59.0365 13.3568 59.6406 13.0234C60.25 12.6849 60.9115 12.5156 61.625 12.5156C62.526 12.5156 63.263 12.7448 63.8359 13.2031C64.4089 13.6562 64.776 14.3021 64.9375 15.1406L63.5703 15.3516C63.4401 14.7943 63.2083 14.375 62.875 14.0938C62.5469 13.8125 62.1484 13.6719 61.6797 13.6719C60.9714 13.6719 60.3958 13.9271 59.9531 14.4375C59.5104 14.9427 59.2891 15.7448 59.2891 16.8438C59.2891 17.9583 59.5026 18.7682 59.9297 19.2734C60.3568 19.7786 60.9141 20.0312 61.6016 20.0312C62.1536 20.0312 62.6146 19.862 62.9844 19.5234C63.3542 19.1849 63.5885 18.6641 63.6875 17.9609ZM71.6875 19.9766C71.1667 20.4193 70.6641 20.7318 70.1797 20.9141C69.7005 21.0964 69.1849 21.1875 68.6328 21.1875C67.7214 21.1875 67.0208 20.9661 66.5312 20.5234C66.0417 20.0755 65.7969 19.5052 65.7969 18.8125C65.7969 18.4062 65.888 18.0365 66.0703 17.7031C66.2578 17.3646 66.5 17.0938 66.7969 16.8906C67.099 16.6875 67.4375 16.5339 67.8125 16.4297C68.0885 16.3568 68.5052 16.2865 69.0625 16.2188C70.1979 16.0833 71.0339 15.9219 71.5703 15.7344C71.5755 15.5417 71.5781 15.4193 71.5781 15.3672C71.5781 14.7943 71.4453 14.3906 71.1797 14.1562C70.8203 13.8385 70.2865 13.6797 69.5781 13.6797C68.9167 13.6797 68.4271 13.7969 68.1094 14.0312C67.7969 14.2604 67.5651 14.6693 67.4141 15.2578L66.0391 15.0703C66.1641 14.4818 66.3698 14.0078 66.6562 13.6484C66.9427 13.2839 67.3568 13.0052 67.8984 12.8125C68.4401 12.6146 69.0677 12.5156 69.7812 12.5156C70.4896 12.5156 71.0651 12.599 71.5078 12.7656C71.9505 12.9323 72.276 13.1432 72.4844 13.3984C72.6927 13.6484 72.8385 13.9661 72.9219 14.3516C72.9688 14.5911 72.9922 15.0234 72.9922 15.6484V17.5234C72.9922 18.8307 73.0208 19.6589 73.0781 20.0078C73.1406 20.3516 73.2604 20.6823 73.4375 21H71.9688C71.8229 20.7083 71.7292 20.3672 71.6875 19.9766ZM71.5703 16.8359C71.0599 17.0443 70.2943 17.2214 69.2734 17.3672C68.6953 17.4505 68.2865 17.5443 68.0469 17.6484C67.8073 17.7526 67.6224 17.9062 67.4922 18.1094C67.362 18.3073 67.2969 18.5286 67.2969 18.7734C67.2969 19.1484 67.4375 19.4609 67.7188 19.7109C68.0052 19.9609 68.4219 20.0859 68.9688 20.0859C69.5104 20.0859 69.9922 19.9688 70.4141 19.7344C70.8359 19.4948 71.1458 19.1693 71.3438 18.7578C71.4948 18.4401 71.5703 17.9714 71.5703 17.3516V16.8359ZM80.5625 21V19.9531C80.0365 20.776 79.263 21.1875 78.2422 21.1875C77.5807 21.1875 76.9714 21.0052 76.4141 20.6406C75.862 20.276 75.4323 19.7682 75.125 19.1172C74.8229 18.4609 74.6719 17.7083 74.6719 16.8594C74.6719 16.0312 74.8099 15.2812 75.0859 14.6094C75.362 13.9323 75.776 13.4141 76.3281 13.0547C76.8802 12.6953 77.4974 12.5156 78.1797 12.5156C78.6797 12.5156 79.125 12.6224 79.5156 12.8359C79.9062 13.0443 80.224 13.3177 80.4688 13.6562V9.54688H81.8672V21H80.5625ZM76.1172 16.8594C76.1172 17.9219 76.3411 18.7161 76.7891 19.2422C77.237 19.7682 77.7656 20.0312 78.375 20.0312C78.9896 20.0312 79.5104 19.7812 79.9375 19.2812C80.3698 18.776 80.5859 18.0078 80.5859 16.9766C80.5859 15.8411 80.3672 15.0078 79.9297 14.4766C79.4922 13.9453 78.9531 13.6797 78.3125 13.6797C77.6875 13.6797 77.1641 13.9349 76.7422 14.4453C76.3255 14.9557 76.1172 15.7604 76.1172 16.8594ZM89.7656 18.3281L91.2188 18.5078C90.9896 19.3568 90.5651 20.0156 89.9453 20.4844C89.3255 20.9531 88.5339 21.1875 87.5703 21.1875C86.3568 21.1875 85.3932 20.8151 84.6797 20.0703C83.9714 19.3203 83.6172 18.2708 83.6172 16.9219C83.6172 15.526 83.9766 14.4427 84.6953 13.6719C85.4141 12.901 86.3464 12.5156 87.4922 12.5156C88.6016 12.5156 89.5078 12.8932 90.2109 13.6484C90.9141 14.4036 91.2656 15.4661 91.2656 16.8359C91.2656 16.9193 91.263 17.0443 91.2578 17.2109H85.0703C85.1224 18.1224 85.3802 18.8203 85.8438 19.3047C86.3073 19.7891 86.8854 20.0312 87.5781 20.0312C88.0938 20.0312 88.5339 19.8958 88.8984 19.625C89.263 19.3542 89.5521 18.9219 89.7656 18.3281ZM85.1484 16.0547H89.7812C89.7188 15.3568 89.5417 14.8333 89.25 14.4844C88.8021 13.9427 88.2214 13.6719 87.5078 13.6719C86.862 13.6719 86.3177 13.888 85.875 14.3203C85.4375 14.7526 85.1953 15.3307 85.1484 16.0547ZM92.9922 21V12.7031H94.25V13.8672C94.5104 13.4609 94.8568 13.1354 95.2891 12.8906C95.7214 12.6406 96.2135 12.5156 96.7656 12.5156C97.3802 12.5156 97.8828 12.6432 98.2734 12.8984C98.6693 13.1536 98.9479 13.5104 99.1094 13.9688C99.7656 13 100.62 12.5156 101.672 12.5156C102.495 12.5156 103.128 12.7448 103.57 13.2031C104.013 13.6562 104.234 14.3568 104.234 15.3047V21H102.836V15.7734C102.836 15.2109 102.789 14.8073 102.695 14.5625C102.607 14.3125 102.443 14.112 102.203 13.9609C101.964 13.8099 101.682 13.7344 101.359 13.7344C100.776 13.7344 100.292 13.9297 99.9062 14.3203C99.5208 14.7057 99.3281 15.3255 99.3281 16.1797V21H97.9219V15.6094C97.9219 14.9844 97.8073 14.5156 97.5781 14.2031C97.349 13.8906 96.974 13.7344 96.4531 13.7344C96.0573 13.7344 95.6901 13.8385 95.3516 14.0469C95.0182 14.2552 94.776 14.5599 94.625 14.9609C94.474 15.362 94.3984 15.9401 94.3984 16.6953V21H92.9922ZM106.258 24.1953L106.102 22.875C106.409 22.9583 106.677 23 106.906 23C107.219 23 107.469 22.9479 107.656 22.8438C107.844 22.7396 107.997 22.5938 108.117 22.4062C108.206 22.2656 108.349 21.9167 108.547 21.3594C108.573 21.2812 108.615 21.1667 108.672 21.0156L105.523 12.7031H107.039L108.766 17.5078C108.99 18.1172 109.19 18.7578 109.367 19.4297C109.529 18.7839 109.721 18.1536 109.945 17.5391L111.719 12.7031H113.125L109.969 21.1406C109.63 22.0521 109.367 22.6797 109.18 23.0234C108.93 23.487 108.643 23.8255 108.32 24.0391C107.997 24.2578 107.612 24.3672 107.164 24.3672C106.893 24.3672 106.591 24.3099 106.258 24.1953Z" fill="#444444"/>
  </symbol>

  <symbol id="academy__logo--icon" viewBox="0 0 27 34">
    <path d="M13.5 0L0 1.4V26L13.5 34L27 26V1.4L13.5 0ZM24.73 25.02L13.5 31.96L2.27 25.02V14.93L13.45 21.85L13.47 23.1L5.45 18.35L5.44 19.58L13.49 24.39L13.51 25.68L5.46 20.92L5.45 22.14L13.5 26.95L21.62 22.12V20.89V16.91L24.73 14.76V25.02ZM24.73 13.45L21.51 15.33L20.03 16.21L13.47 12.02L13.46 13.25L19.5 16.82L19.44 16.85L19.31 16.92L18.45 17.42L13.47 14.47L13.46 15.69L17.39 18.02L16.46 18.63L16.44 18.64L13.47 16.9L13.46 18.13L15.4 19.26L13.42 20.45L2.8 13.58L13.44 6.62L24.73 13.45ZM24.73 12.23L13.44 5.31L2.27 12.22V2.99L13.5 1.76L24.73 2.99V12.23Z" fill="currentColor"/>
  </symbol>
</svg>
